<svg xmlns="http://www.w3.org/2000/svg" xmlns:xlink="http://www.w3.org/1999/xlink" width="500" zoomAndPan="magnify" viewBox="0 0 375 374.999991" height="500" preserveAspectRatio="xMidYMid meet" version="1.0"><defs><clipPath id="b214ec7fb6"><path d="M 0 206 L 287 206 L 287 364.390625 L 0 364.390625 Z M 0 206 " clip-rule="nonzero"/></clipPath></defs><g clip-path="url(#b214ec7fb6)"><path fill="#79a2f2" d="M 262.90625 316.679688 C 252.535156 316.679688 243.773438 323.34375 240.457031 332.578125 L 194.742188 332.578125 L 144.644531 245.496094 C 148.234375 241.320312 150.484375 235.945312 150.484375 230.03125 C 150.484375 216.84375 139.746094 206.109375 126.550781 206.109375 C 116.164062 206.109375 107.386719 212.808594 104.085938 222.074219 L 46.453125 222.074219 C 43.152344 212.808594 34.375 206.109375 23.988281 206.109375 C 10.792969 206.109375 0.0546875 216.84375 0.0546875 230.03125 C 0.0546875 243.21875 10.792969 253.949219 23.988281 253.949219 C 25.503906 253.949219 26.988281 253.773438 28.425781 253.503906 L 83.261719 348.523438 L 113.082031 348.523438 C 113.5625 349.863281 114.121094 351.1875 114.855469 352.464844 C 119.273438 360.132812 127.347656 364.4375 135.628906 364.4375 C 139.699219 364.4375 143.796875 363.417969 147.546875 361.234375 C 153.085938 358.058594 157.058594 352.910156 158.699219 346.738281 C 160.34375 340.566406 159.515625 334.125 156.324219 328.574219 C 149.734375 317.160156 135.039062 313.25 123.644531 319.789062 C 118.492188 322.738281 114.964844 327.378906 113.132812 332.578125 L 92.5 332.578125 L 42.195312 245.386719 C 44.027344 243.21875 45.480469 240.746094 46.453125 238.019531 L 104.117188 238.019531 C 107.417969 247.265625 116.195312 253.949219 126.582031 253.949219 C 128.050781 253.949219 129.484375 253.773438 130.890625 253.519531 L 185.554688 348.523438 L 240.472656 348.523438 C 243.757812 357.804688 252.550781 364.519531 262.953125 364.519531 C 276.148438 364.519531 286.886719 353.785156 286.886719 340.597656 C 286.886719 327.410156 276.148438 316.679688 262.953125 316.679688 Z M 127.84375 338.445312 C 128.386719 336.390625 129.710938 334.683594 131.542969 333.613281 C 132.804688 332.898438 134.175781 332.5625 135.515625 332.5625 C 138.292969 332.5625 140.988281 333.980469 142.457031 336.53125 C 143.527344 338.382812 143.8125 340.535156 143.253906 342.59375 C 142.714844 344.648438 141.390625 346.355469 139.554688 347.425781 C 135.707031 349.625 130.859375 348.300781 128.65625 344.507812 C 127.601562 342.65625 127.300781 340.503906 127.859375 338.445312 Z M 15.980469 230.03125 C 15.980469 225.644531 19.570312 222.058594 23.957031 222.058594 C 28.34375 222.058594 31.933594 225.644531 31.933594 230.03125 C 31.933594 234.414062 28.34375 238.003906 23.957031 238.003906 C 19.570312 238.003906 15.980469 234.414062 15.980469 230.03125 Z M 118.554688 230.03125 C 118.554688 225.644531 122.148438 222.058594 126.535156 222.058594 C 130.921875 222.058594 134.511719 225.644531 134.511719 230.03125 C 134.511719 234.414062 130.921875 238.003906 126.535156 238.003906 C 122.148438 238.003906 118.554688 234.414062 118.554688 230.03125 Z M 262.90625 348.570312 C 258.519531 348.570312 254.925781 344.984375 254.925781 340.597656 C 254.925781 336.214844 258.519531 332.625 262.90625 332.625 C 267.292969 332.625 270.882812 336.214844 270.882812 340.597656 C 270.882812 344.984375 267.292969 348.570312 262.90625 348.570312 Z M 262.90625 348.570312 " fill-opacity="1" fill-rule="nonzero"/></g><path fill="#186bd9" d="M 350.453125 165.128906 C 340.066406 165.128906 331.289062 171.8125 327.988281 181.074219 L 189.144531 181.074219 L 223.527344 121.277344 L 280.535156 121.277344 C 283.839844 130.542969 292.613281 137.226562 303 137.226562 C 316.195312 137.226562 326.933594 126.492188 326.933594 113.304688 C 326.933594 100.117188 316.195312 89.386719 303 89.386719 C 292.613281 89.386719 283.839844 96.066406 280.535156 105.332031 L 214.304688 105.332031 L 170.730469 181.074219 L 97.703125 181.074219 C 94.398438 171.8125 85.625 165.128906 75.238281 165.128906 C 62.042969 165.128906 51.304688 175.863281 51.304688 189.050781 C 51.304688 202.234375 62.042969 212.96875 75.238281 212.96875 C 85.625 212.96875 94.398438 206.285156 97.703125 197.023438 L 170.730469 197.023438 L 214.304688 272.765625 L 280.535156 272.765625 C 283.839844 282.015625 292.613281 288.695312 303 288.695312 C 316.195312 288.695312 326.933594 277.964844 326.933594 264.777344 C 326.933594 251.589844 316.195312 240.855469 303 240.855469 C 292.613281 240.855469 283.839844 247.554688 280.535156 256.820312 L 223.542969 256.820312 L 189.160156 197.023438 L 328.003906 197.023438 C 331.304688 206.285156 340.082031 212.96875 350.46875 212.96875 C 363.664062 212.96875 374.402344 202.234375 374.402344 189.050781 C 374.402344 175.863281 363.664062 165.128906 350.46875 165.128906 Z M 302.984375 105.332031 C 307.375 105.332031 310.964844 108.921875 310.964844 113.304688 C 310.964844 117.691406 307.375 121.277344 302.984375 121.277344 C 298.597656 121.277344 295.007812 117.691406 295.007812 113.304688 C 295.007812 108.921875 298.597656 105.332031 302.984375 105.332031 Z M 302.984375 256.804688 C 307.375 256.804688 310.964844 260.390625 310.964844 264.777344 C 310.964844 269.160156 307.375 272.75 302.984375 272.75 C 298.597656 272.75 295.007812 269.160156 295.007812 264.777344 C 295.007812 260.390625 298.597656 256.804688 302.984375 256.804688 Z M 75.238281 197.023438 C 70.851562 197.023438 67.257812 193.433594 67.257812 189.050781 C 67.257812 184.664062 70.851562 181.074219 75.238281 181.074219 C 79.625 181.074219 83.214844 184.664062 83.214844 189.050781 C 83.214844 193.433594 79.625 197.023438 75.238281 197.023438 Z M 350.453125 197.023438 C 346.066406 197.023438 342.476562 193.433594 342.476562 189.050781 C 342.476562 184.664062 346.066406 181.074219 350.453125 181.074219 C 354.839844 181.074219 358.429688 184.664062 358.429688 189.050781 C 358.429688 193.433594 354.839844 197.023438 350.453125 197.023438 Z M 350.453125 197.023438 " fill-opacity="1" fill-rule="nonzero"/><path fill="#3b7fd9" d="M 23.957031 171.988281 C 34.328125 171.988281 43.101562 165.320312 46.40625 156.074219 L 104.070312 156.074219 C 107.386719 165.320312 116.148438 171.988281 126.519531 171.988281 C 139.714844 171.988281 150.453125 161.253906 150.453125 148.066406 C 150.453125 142.152344 148.203125 136.792969 144.628906 132.617188 L 194.710938 45.550781 L 240.441406 45.550781 C 243.757812 54.769531 252.519531 61.417969 262.875 61.417969 C 276.070312 61.417969 286.808594 50.6875 286.808594 37.5 C 286.808594 24.3125 276.070312 13.578125 262.875 13.578125 C 252.453125 13.578125 243.664062 20.308594 240.390625 29.605469 L 185.488281 29.605469 L 130.84375 124.578125 C 129.4375 124.324219 127.984375 124.148438 126.519531 124.148438 C 116.117188 124.148438 107.339844 130.847656 104.035156 140.125 L 46.40625 140.125 C 45.433594 137.382812 43.980469 134.898438 42.128906 132.726562 L 92.453125 45.390625 L 113.050781 45.390625 C 114.871094 50.636719 118.429688 55.308594 123.597656 58.308594 C 127.332031 60.460938 131.433594 61.480469 135.484375 61.480469 C 143.78125 61.480469 151.839844 57.175781 156.292969 49.507812 C 162.863281 38.074219 158.921875 23.417969 147.484375 16.832031 C 136.109375 10.296875 121.398438 14.203125 114.792969 25.636719 C 114.074219 26.863281 113.546875 28.15625 113.082031 29.445312 L 83.230469 29.445312 L 28.425781 124.59375 C 26.972656 124.324219 25.488281 124.148438 23.957031 124.148438 C 10.761719 124.148438 0.0234375 134.878906 0.0234375 148.066406 C 0.0234375 161.253906 10.761719 171.988281 23.957031 171.988281 Z M 262.90625 29.527344 C 267.292969 29.527344 270.882812 33.113281 270.882812 37.5 C 270.882812 41.882812 267.292969 45.472656 262.90625 45.472656 C 258.519531 45.472656 254.925781 41.882812 254.925781 37.5 C 254.925781 33.113281 258.519531 29.527344 262.90625 29.527344 Z M 128.625 33.59375 C 130.109375 31.039062 132.804688 29.605469 135.582031 29.605469 C 136.9375 29.605469 138.292969 29.941406 139.554688 30.65625 C 143.351562 32.859375 144.660156 37.722656 142.488281 41.550781 C 140.289062 45.328125 135.390625 46.683594 131.574219 44.5 C 127.761719 42.28125 126.453125 37.402344 128.625 33.59375 Z M 126.535156 140.09375 C 130.921875 140.09375 134.511719 143.683594 134.511719 148.066406 C 134.511719 152.453125 130.921875 156.039062 126.535156 156.039062 C 122.144531 156.039062 118.554688 152.453125 118.554688 148.066406 C 118.554688 143.683594 122.144531 140.09375 126.535156 140.09375 Z M 23.957031 140.09375 C 28.34375 140.09375 31.933594 143.683594 31.933594 148.066406 C 31.933594 152.453125 28.34375 156.039062 23.957031 156.039062 C 19.570312 156.039062 15.980469 152.453125 15.980469 148.066406 C 15.980469 143.683594 19.570312 140.09375 23.957031 140.09375 Z M 23.957031 140.09375 " fill-opacity="1" fill-rule="nonzero"/></svg>