<?xml version="1.0" encoding="utf-8"?>
<!-- Generator: Adobe Illustrator 28.3.0, SVG Export Plug-In . SVG Version: 6.00 Build 0)  -->
<svg version="1.1" id="Layer_1" xmlns="http://www.w3.org/2000/svg" xmlns:xlink="http://www.w3.org/1999/xlink" x="0px" y="0px"
	 viewBox="0 0 1000 1000" style="enable-background:new 0 0 1000 1000;" xml:space="preserve">
<style type="text/css">
	.st0{fill:url(#SVGID_1_);}
	.st1{fill:url(#SVGID_00000135668604441907394160000003604618149106751149_);}
	.st2{fill:url(#SVGID_00000161619757679519682030000016454120275928870786_);}
</style>
<g>
	<linearGradient id="SVGID_1_" gradientUnits="userSpaceOnUse" x1="299.5347" y1="533.1815" x2="704.0945" y2="937.7413">
		<stop  offset="0" style="stop-color:#929497;stop-opacity:0"/>
		<stop  offset="1" style="stop-color:#929497"/>
	</linearGradient>
	<path class="st0" d="M547.25,485.48l311.33,203.89c33.22,21.76,33.22,70.44,0,92.2L547.25,985.45c-27.6,18.07-63.28,18.07-90.87,0
		L145.04,781.56c-33.22-21.76-33.22-70.44,0-92.2l311.33-203.89C483.97,467.4,519.66,467.4,547.25,485.48z"/>
	
		<linearGradient id="SVGID_00000089549877110945983510000014791884968737973929_" gradientUnits="userSpaceOnUse" x1="7103.2393" y1="298.7205" x2="6698.6792" y2="703.2803" gradientTransform="matrix(-1 0 0 1 7402.7739 0)">
		<stop  offset="0" style="stop-color:#00ADEE;stop-opacity:0"/>
		<stop  offset="1" style="stop-color:#00ADEE"/>
	</linearGradient>
	<path style="fill:url(#SVGID_00000089549877110945983510000014791884968737973929_);" d="M547.25,251.01L858.59,454.9
		c33.22,21.76,33.22,70.44,0,92.2L547.25,750.99c-27.6,18.07-63.28,18.07-90.87,0L145.04,547.1c-33.22-21.76-33.22-70.44,0-92.2
		l311.33-203.89C483.97,232.94,519.66,232.94,547.25,251.01z"/>
	
		<linearGradient id="SVGID_00000064333292727527141610000001130050641859585199_" gradientUnits="userSpaceOnUse" x1="7103.2393" y1="64.2594" x2="6698.6792" y2="468.8192" gradientTransform="matrix(-1 0 0 1 7402.7739 0)">
		<stop  offset="0" style="stop-color:#F69222;stop-opacity:0"/>
		<stop  offset="1" style="stop-color:#F69222"/>
	</linearGradient>
	<path style="fill:url(#SVGID_00000064333292727527141610000001130050641859585199_);" d="M547.25,16.55l311.33,203.89
		c33.22,21.76,33.22,70.44,0,92.2L547.25,516.52c-27.6,18.07-63.28,18.07-90.87,0L145.04,312.64c-33.22-21.76-33.22-70.44,0-92.2
		L456.38,16.55C483.97-1.52,519.66-1.52,547.25,16.55z"/>
</g>
</svg>
