<svg xmlns="http://www.w3.org/2000/svg" xmlns:xlink="http://www.w3.org/1999/xlink" viewBox="0 0 137.32 32.42"><defs><style>.cls-1{fill:none;}.cls-2{fill:url(#linear-gradient);}.cls-3{fill:url(#linear-gradient-2);}.cls-4{fill:url(#linear-gradient-3);}.cls-5{fill:#939598;}</style><linearGradient id="linear-gradient" x1="6.23" y1="15.83" x2="18.13" y2="27.73" gradientUnits="userSpaceOnUse"><stop offset="0" stop-color="#939598" stop-opacity="0"/><stop offset="0.01" stop-color="#939598" stop-opacity="0.02"/><stop offset="0.18" stop-color="#939598" stop-opacity="0.32"/><stop offset="0.35" stop-color="#939598" stop-opacity="0.56"/><stop offset="0.51" stop-color="#939598" stop-opacity="0.75"/><stop offset="0.68" stop-color="#939598" stop-opacity="0.89"/><stop offset="0.84" stop-color="#939598" stop-opacity="0.97"/><stop offset="1" stop-color="#939598"/></linearGradient><linearGradient id="linear-gradient-2" x1="7143.22" y1="8.94" x2="7131.32" y2="20.84" gradientTransform="matrix(-1, 0, 0, 1, 7149.46, 0)" gradientUnits="userSpaceOnUse"><stop offset="0" stop-color="#00aeef" stop-opacity="0"/><stop offset="0.1" stop-color="#00aeef" stop-opacity="0.11"/><stop offset="1" stop-color="#00aeef"/></linearGradient><linearGradient id="linear-gradient-3" x1="7143.22" y1="2.04" x2="7131.32" y2="13.94" gradientTransform="matrix(-1, 0, 0, 1, 7149.46, 0)" gradientUnits="userSpaceOnUse"><stop offset="0" stop-color="#f69222" stop-opacity="0"/><stop offset="0.09" stop-color="#f69222" stop-opacity="0.17"/><stop offset="0.22" stop-color="#f69222" stop-opacity="0.39"/><stop offset="0.36" stop-color="#f69222" stop-opacity="0.58"/><stop offset="0.49" stop-color="#f69222" stop-opacity="0.73"/><stop offset="0.62" stop-color="#f69222" stop-opacity="0.85"/><stop offset="0.75" stop-color="#f69222" stop-opacity="0.93"/><stop offset="0.88" stop-color="#f69222" stop-opacity="0.98"/><stop offset="1" stop-color="#f69222"/></linearGradient></defs><title>Asset 54</title><g id="Layer_2" data-name="Layer 2"><g id="Layer_1-2" data-name="Layer 1"><rect class="cls-1" width="137.32" height="32.42"/><path class="cls-2" d="M13.52,14.43l9.16,6a1.63,1.63,0,0,1,0,2.71l-9.16,6a2.44,2.44,0,0,1-2.67,0l-9.16-6a1.62,1.62,0,0,1,0-2.71l9.16-6A2.44,2.44,0,0,1,13.52,14.43Z"/><path class="cls-3" d="M13.52,7.53l9.16,6a1.63,1.63,0,0,1,0,2.71l-9.16,6a2.44,2.44,0,0,1-2.67,0l-9.16-6a1.62,1.62,0,0,1,0-2.71l9.16-6A2.44,2.44,0,0,1,13.52,7.53Z"/><path class="cls-4" d="M13.52.64l9.16,6a1.63,1.63,0,0,1,0,2.71l-9.16,6a2.4,2.4,0,0,1-2.67,0l-9.16-6a1.62,1.62,0,0,1,0-2.71l9.16-6A2.44,2.44,0,0,1,13.52.64Z"/><path class="cls-5" d="M27.35,4.67H39.1c5,0,6.87,1.43,6.87,5.3,0,2.56-.82,4-2.87,4.68v.06c2.65.59,3.64,2.15,3.64,5.15,0,4.11-1.9,5.7-6.92,5.7H27.35Zm11.47,9.39c4,0,5.27-.91,5.27-3.87s-1.21-3.81-5.2-3.81H29.22v7.68Zm.78,9.79c3.9,0,5.24-1,5.24-4.09s-1.31-4-5.3-4H29.22v8.08Z"/><path class="cls-5" d="M48.77,21.38c0-3.21,1.81-4.42,6.49-4.42a49.65,49.65,0,0,1,6.21.46v-1C61.47,13,60.25,12,56,12a15.16,15.16,0,0,0-5.62.9l-.21-1.68a18.53,18.53,0,0,1,5.92-.84c5.46,0,7.2,1.43,7.2,5.92v9.26H61.9l-.31-1.93a12.84,12.84,0,0,1-7.33,2.31C50.52,25.94,48.77,24.53,48.77,21.38Zm12.7.6V19a53.63,53.63,0,0,0-6.34-.49c-3.39,0-4.55.81-4.55,2.83s1.25,3,4,3C57,24.32,58.88,23.66,61.47,22Z"/><path class="cls-5" d="M65.36,24.57l.22-1.81a24.28,24.28,0,0,0,8.92,1.46c5.58,0,7.42-1.18,7.42-4.39,0-2.59-1.18-3.47-5.92-3.87l-2.93-.25c-5.68-.47-7.3-1.84-7.3-5.33C65.77,6,68.3,4.3,75,4.3A22.9,22.9,0,0,1,82.8,5.45l-.22,1.78A22.51,22.51,0,0,0,74.75,6c-5.33,0-7.11,1.12-7.11,4.18,0,2.34,1,3.21,5.93,3.65l2.9.25c5.64.5,7.32,1.9,7.32,5.64,0,4.55-2.46,6.21-9.44,6.21A25.86,25.86,0,0,1,65.36,24.57Z"/><path class="cls-5" d="M98.41,10.75,90.64,28.59C89.46,31.3,88.56,32,85.91,32H85V30.37h.87c1.75,0,2.28-.47,3.15-2.44l1.22-2.77L83.82,10.75h2L91.21,23l5.27-12.26Z"/><path class="cls-5" d="M104.46,17.7l-5.61-7.17h4.83l3.74,5,3.56-5h4.27l-5.58,7.64,5.74,7.39h-4.84l-3.9-5.17L103,25.56H98.72Z"/></g></g></svg>