<?xml version="1.0" encoding="utf-8"?>
<!-- Generator: Adobe Illustrator 28.3.0, SVG Export Plug-In . SVG Version: 6.00 Build 0)  -->
<svg version="1.1" id="HTW_x5F_Berlin_x5F_Logo_x5F_quer"
	 xmlns="http://www.w3.org/2000/svg" xmlns:xlink="http://www.w3.org/1999/xlink" x="0px" y="0px" viewBox="0 0 170 21.4"
	 style="enable-background:new 0 0 170 21.4;" xml:space="preserve">
<style type="text/css">
	.st0{fill:#76B900;}
</style>
<g>
	<path d="M79.8,5.3H81v2.6h1.9V5.3h1.2v6.2h-1.2V8.9H81v2.6h-1.2V5.3z"/>
	<path d="M85.3,10.2c-0.1-0.3-0.1-0.6-0.1-1.1s0-0.8,0.1-1.1c0.2-0.8,0.9-1.4,1.9-1.4S88.8,7.2,89,8c0.1,0.3,0.1,0.6,0.1,1.1
		s0,0.8-0.1,1.1c-0.2,0.8-0.9,1.4-1.9,1.4S85.5,11,85.3,10.2z M87.8,10c0.1-0.3,0.1-0.6,0.1-0.9c0-0.3,0-0.6-0.1-0.9
		c-0.1-0.3-0.3-0.6-0.7-0.6c-0.4,0-0.7,0.3-0.7,0.6c-0.1,0.3-0.1,0.6-0.1,0.8c0,0.3,0,0.6,0.1,0.8c0.1,0.3,0.3,0.6,0.7,0.6
		C87.5,10.6,87.8,10.3,87.8,10z"/>
	<path d="M90.1,10.2C90,9.9,90,9.7,90,9.1c0-0.5,0-0.8,0.1-1.1c0.2-0.8,0.8-1.4,1.8-1.4c0.9,0,1.6,0.4,1.7,1.3
		c0,0.2,0.1,0.4,0.1,0.6v0.1h-1.2l0,0c0-0.1,0-0.2,0-0.3c-0.1-0.4-0.3-0.6-0.7-0.6c-0.4,0-0.6,0.2-0.7,0.7c0,0.2,0,0.5,0,0.8
		s0,0.6,0,0.7c0.1,0.4,0.3,0.7,0.7,0.7s0.7-0.3,0.9-0.6l0.8,0.8c-0.3,0.6-1,0.9-1.7,0.9C90.9,11.6,90.3,11,90.1,10.2z"/>
	<path d="M95.8,11.5h-1.2V5h1.2v2.1c0.2-0.2,0.5-0.4,1-0.4c1,0,1.6,0.7,1.6,1.6v3.2h-1.2V8.4c0-0.5-0.2-0.7-0.7-0.7
		c-0.4,0-0.7,0.3-0.7,0.7L95.8,11.5L95.8,11.5z"/>
	<path d="M101.5,8.8c0.7,0.3,1.2,0.5,1.2,1.4c0,0.8-0.7,1.4-1.7,1.4c-0.9,0-1.5-0.4-1.8-1l0.8-0.7c0.2,0.4,0.5,0.6,1,0.6
		c0.2,0,0.4-0.1,0.4-0.3c0-0.3-0.2-0.3-0.6-0.5l-0.4-0.1c-0.9-0.3-1.2-0.8-1.2-1.5c0-0.8,0.7-1.5,1.6-1.5c1.1,0,1.6,0.6,1.6,1.5
		c0,0.1,0,0.1,0,0.2h-1.2V8.2c0-0.4-0.2-0.5-0.5-0.5s-0.5,0.2-0.5,0.4s0.2,0.4,0.6,0.5L101.5,8.8z"/>
	<path d="M103.7,10.2c-0.1-0.3-0.1-0.6-0.1-1.1s0-0.8,0.1-1.1c0.2-0.8,0.8-1.4,1.8-1.4c0.9,0,1.5,0.4,1.7,1.3c0,0.2,0.1,0.4,0.1,0.6
		v0.1h-1.2l0,0c0-0.1,0-0.2,0-0.3c-0.1-0.4-0.3-0.6-0.7-0.6c-0.4,0-0.6,0.2-0.7,0.7c0,0.2,0,0.5,0,0.8s0,0.6,0,0.7
		c0.1,0.4,0.3,0.7,0.7,0.7s0.7-0.3,0.9-0.6l0.8,0.8c-0.4,0.6-1,0.9-1.7,0.9C104.5,11.6,103.9,11,103.7,10.2z"/>
	<path d="M109.4,11.5h-1.2V5h1.2v2.1c0.2-0.2,0.5-0.4,1-0.4c1,0,1.6,0.7,1.6,1.6v3.2h-1.2V8.4c0-0.5-0.2-0.7-0.7-0.7
		c-0.4,0-0.7,0.3-0.7,0.7L109.4,11.5L109.4,11.5z"/>
	<path d="M115.7,11.1c-0.3,0.4-0.7,0.5-1.1,0.5c-1,0-1.5-0.7-1.5-1.6V6.8h1.2v3.1c0,0.4,0.2,0.7,0.7,0.7c0.4,0,0.7-0.3,0.7-0.7V6.8
		h1.2v4.8h-1L115.7,11.1z"/>
	<path d="M119.2,10.3c0.1,0.1,0.2,0.2,0.4,0.2c0.1,0,0.2,0,0.3,0v1.1c-0.1,0-0.4,0-0.5,0c-0.6,0-1.1-0.3-1.3-0.7
		c-0.1-0.2-0.1-0.5-0.1-0.7V5h1.2v5.1C119.2,10.2,119.2,10.2,119.2,10.3z"/>
	<path d="M124.2,8c0.1,0.2,0.1,0.5,0.1,0.8c0,0.2,0,0.5,0,0.7h-2.6c0,0.1,0,0.2,0,0.3c0.1,0.4,0.3,0.6,0.8,0.6c0.3,0,0.7-0.1,1-0.6
		l0.8,0.7c-0.4,0.6-1.1,0.9-1.8,0.9c-1,0-1.6-0.6-1.9-1.4c-0.1-0.3-0.1-0.6-0.1-1.1s0-0.8,0.1-1.1c0.2-0.8,0.8-1.4,1.8-1.4
		C123.4,6.7,124,7.2,124.2,8z M121.7,8.3c0,0.1,0,0.2,0,0.3h1.4c0-0.2,0-0.3,0-0.3c-0.1-0.4-0.3-0.6-0.7-0.6
		C122,7.7,121.8,7.9,121.7,8.3z"/>
	<path d="M128.8,7.8v3.7h-1.2V7.8h-0.5v-1h0.5V6.4c0-0.9,0.6-1.5,1.4-1.5c0.5,0,0.8,0.1,1,0.3l-0.4,0.9c0-0.1-0.2-0.1-0.4-0.1
		s-0.4,0.2-0.4,0.5v0.3h0.9v1H128.8L128.8,7.8z"/>
	<path d="M133.2,11.1c-0.3,0.4-0.7,0.5-1.1,0.5c-1,0-1.5-0.7-1.5-1.6V6.8h1.2v3.1c0,0.4,0.2,0.7,0.7,0.7c0.4,0,0.7-0.3,0.7-0.7V6.8
		h1.2v4.8h-1L133.2,11.1z M130.9,5.6c0-0.4,0.3-0.6,0.7-0.6s0.7,0.3,0.7,0.6c0,0.4-0.3,0.7-0.7,0.7C131.2,6.3,130.9,6,130.9,5.6z
		 M132.7,5.6c0-0.4,0.3-0.6,0.7-0.6s0.7,0.3,0.7,0.6c0,0.4-0.3,0.7-0.7,0.7C133,6.3,132.7,6,132.7,5.6z"/>
	<path d="M136.7,11.5h-1.2V6.8h1l0.1,0.5c0.2-0.4,0.6-0.5,1-0.5c0.1,0,0.2,0,0.4,0v1.1c-0.3-0.1-0.5-0.1-0.6-0.1
		c-0.4,0-0.7,0.2-0.7,0.7V11.5L136.7,11.5z"/>
	<path d="M141.6,6.4h-1.5V5.3h4.3v1.1h-1.5v5.1h-1.2V6.4H141.6z"/>
	<path d="M148.1,8c0.1,0.2,0.1,0.5,0.1,0.8c0,0.2,0,0.5,0,0.7h-2.6c0,0.1,0,0.2,0,0.3c0.1,0.4,0.3,0.6,0.8,0.6c0.3,0,0.7-0.1,1-0.6
		l0.8,0.7c-0.4,0.6-1.1,0.9-1.8,0.9c-1,0-1.6-0.6-1.9-1.4c-0.1-0.3-0.1-0.6-0.1-1.1s0-0.8,0.1-1.1c0.2-0.8,0.8-1.4,1.8-1.4
		C147.2,6.7,147.9,7.2,148.1,8z M145.6,8.3c0,0.1,0,0.2,0,0.3h1.4c0-0.2,0-0.3,0-0.3c-0.1-0.4-0.3-0.6-0.7-0.6
		C145.8,7.7,145.6,7.9,145.6,8.3z"/>
	<path d="M149.1,10.2C149,9.9,149,9.7,149,9.1c0-0.5,0-0.8,0.1-1.1c0.2-0.8,0.8-1.4,1.8-1.4c0.9,0,1.6,0.4,1.7,1.3
		c0,0.2,0.1,0.4,0.1,0.6v0.1h-1.1l0,0c0-0.1,0-0.2,0-0.3c-0.1-0.4-0.3-0.6-0.7-0.6s-0.6,0.2-0.7,0.7c0,0.2,0,0.5,0,0.8s0,0.6,0,0.7
		c0.1,0.4,0.3,0.7,0.7,0.7s0.7-0.3,0.9-0.6l0.8,0.8c-0.4,0.6-1,0.9-1.7,0.9C149.9,11.6,149.3,11,149.1,10.2z"/>
	<path d="M154.8,11.5h-1.2V5h1.2v2.1c0.2-0.2,0.5-0.4,1-0.4c1,0,1.6,0.7,1.6,1.6v3.2h-1.2V8.4c0-0.5-0.2-0.7-0.7-0.7
		c-0.4,0-0.7,0.3-0.7,0.7L154.8,11.5L154.8,11.5z"/>
	<path d="M159.7,11.5h-1.2V6.8h1l0.1,0.4c0.2-0.4,0.6-0.5,1.1-0.5c1,0,1.6,0.7,1.6,1.6v3.2h-1.2V8.4c0-0.5-0.2-0.7-0.7-0.7
		c-0.4,0-0.7,0.3-0.7,0.7L159.7,11.5L159.7,11.5z"/>
	<path d="M163.4,5.6c0-0.4,0.3-0.7,0.7-0.7s0.7,0.3,0.7,0.7c0,0.4-0.3,0.7-0.7,0.7C163.7,6.3,163.4,5.9,163.4,5.6z M163.5,11.5V6.8
		h1.2v4.8h-1.2V11.5z"/>
	<path d="M167.1,9.7v1.8H166V5h1.2v3.6h0.1c0.9,0,1.2-0.7,1.2-1.5c0-0.1,0-0.2,0-0.3h1.2c0,0.1,0,0.2,0,0.3c0,0.9-0.3,1.7-1.1,2.2
		l1.4,2.2h-1.4l-1.1-1.9c-0.1,0-0.2,0-0.2,0L167.1,9.7L167.1,9.7z"/>
	<path d="M82.3,20.9c-0.3,0.4-0.7,0.5-1.1,0.5c-1,0-1.5-0.7-1.5-1.6v-3.2h1.2v3.1c0,0.4,0.2,0.7,0.7,0.7c0.4,0,0.7-0.3,0.7-0.7v-3.1
		h1.2v4.8h-1L82.3,20.9z"/>
	<path d="M85.8,21.3h-1.2v-4.8h1l0.1,0.4c0.2-0.4,0.7-0.5,1.1-0.5c1,0,1.6,0.7,1.6,1.6v3.2h-1.2v-3.1c0-0.5-0.2-0.7-0.7-0.7
		c-0.4,0-0.7,0.3-0.7,0.7L85.8,21.3L85.8,21.3z"/>
	<path d="M92.2,20.9c-0.3,0.3-0.6,0.5-1.2,0.5c-0.9,0-1.5-0.6-1.7-1.4c-0.1-0.3-0.1-0.6-0.1-1.1s0-0.8,0.1-1.1
		c0.2-0.8,0.9-1.3,1.7-1.3c0.4,0,0.8,0.1,1,0.3v-2h1.2v6.6h-1V20.9z M92,19.7c0.1-0.2,0.1-0.5,0.1-0.8s0-0.5-0.1-0.8
		c-0.1-0.4-0.3-0.7-0.8-0.7s-0.7,0.3-0.8,0.7c0,0.2,0,0.5,0,0.8s0,0.6,0,0.8c0.1,0.4,0.3,0.7,0.8,0.7C91.7,20.4,92,20.1,92,19.7z"/>
	<path d="M97.3,21.3l-0.9-3.9c-0.1-0.5-0.2-1.2-0.2-1.6v-0.7h1.2v0.7c0,0.3,0,0.9,0.1,1.3l0.2,0.9c0.1,0.7,0.3,1.4,0.3,1.7l0,0
		c0-0.4,0.2-0.9,0.3-1.3l0.5-1.9h1l0.5,1.8c0.2,0.5,0.3,1.2,0.3,1.5l0,0c0-0.4,0.2-1,0.3-1.7l0.2-1c0.1-0.4,0.1-1,0.1-1.3v-0.7h1.2
		v0.7c0,0.5-0.1,1.1-0.2,1.6l-0.8,3.9h-1.3l-0.6-2c-0.2-0.6-0.2-0.9-0.2-1.2l0,0c0,0.3-0.1,0.6-0.2,1.2l-0.5,2L97.3,21.3L97.3,21.3z
		"/>
	<path d="M103.3,15.4c0-0.4,0.3-0.7,0.7-0.7c0.4,0,0.7,0.3,0.7,0.7s-0.3,0.7-0.7,0.7C103.6,16.1,103.3,15.7,103.3,15.4z M103.4,21.3
		v-4.8h1.2v4.8H103.4z"/>
	<path d="M107,21.3h-1.2v-4.8h1l0.1,0.5c0.2-0.4,0.6-0.5,1-0.5c0.1,0,0.2,0,0.4,0v1.1c-0.3-0.1-0.5-0.1-0.6-0.1
		c-0.4,0-0.7,0.2-0.7,0.7L107,21.3L107,21.3z"/>
	<path d="M110.7,21.4c-0.8,0-1.4-0.5-1.4-1.5v-2.3h-0.5v-1h0.5v-1.3h1.2v1.3h1.1v1h-1.1v2.3c0,0.3,0.2,0.5,0.4,0.5
		c0.2,0,0.3-0.1,0.5-0.2l0.3,1C111.5,21.3,111.2,21.4,110.7,21.4z"/>
	<path d="M114.5,18.6c0.7,0.3,1.2,0.5,1.2,1.4c0,0.8-0.7,1.4-1.7,1.4c-0.9,0-1.5-0.4-1.8-1l0.8-0.7c0.2,0.4,0.5,0.6,1,0.6
		c0.2,0,0.4-0.1,0.4-0.3c0-0.3-0.2-0.3-0.6-0.5l-0.4-0.1c-0.9-0.3-1.2-0.8-1.2-1.5c0-0.8,0.7-1.5,1.6-1.5c1.1,0,1.6,0.6,1.6,1.5
		c0,0.1,0,0.1,0,0.2h-1.2V18c0-0.4-0.2-0.5-0.5-0.5s-0.5,0.2-0.5,0.4c0,0.2,0.2,0.4,0.6,0.5L114.5,18.6z"/>
	<path d="M116.7,20c-0.1-0.3-0.1-0.6-0.1-1.1s0-0.8,0.1-1.1c0.2-0.8,0.8-1.4,1.8-1.4c0.9,0,1.6,0.4,1.7,1.3c0,0.2,0.1,0.4,0.1,0.6
		v0.1h-1.1v-0.1c0-0.1,0-0.2,0-0.3c-0.1-0.4-0.3-0.6-0.7-0.6c-0.4,0-0.6,0.2-0.7,0.7c0,0.2,0,0.5,0,0.8s0,0.6,0,0.7
		c0.1,0.4,0.3,0.7,0.7,0.7c0.4,0,0.7-0.3,0.9-0.6l0.8,0.8c-0.4,0.6-1,0.9-1.7,0.9C117.5,21.4,116.9,20.8,116.7,20z"/>
	<path d="M122.4,21.3h-1.2v-6.6h1.2v2.1c0.2-0.2,0.5-0.4,1-0.4c1,0,1.6,0.7,1.6,1.6v3.2h-1.2v-3.1c0-0.5-0.2-0.7-0.7-0.7
		c-0.4,0-0.7,0.3-0.7,0.7L122.4,21.3L122.4,21.3z"/>
	<path d="M127.5,21.3c-0.3,0-0.5,0-0.7-0.1c-0.6-0.2-0.9-0.7-0.9-1.4c0-0.7,0.4-1.1,0.9-1.3c0.2-0.1,0.4-0.1,0.7-0.1
		c0.3,0,0.5,0,0.7,0.1v-0.6c0-0.4-0.2-0.6-0.6-0.6c-0.3,0-0.6,0.1-0.8,0.6l-0.9-0.6c0.4-0.7,0.8-1,1.7-1c1.1,0,1.7,0.7,1.7,1.6v3.3
		h-0.9l-0.1-0.3c-0.1,0.1-0.1,0.1-0.2,0.1C128.1,21.3,127.8,21.3,127.5,21.3z M128,20.3c0.2,0,0.3-0.2,0.3-0.4
		c0-0.2-0.1-0.4-0.3-0.4c-0.1,0-0.3,0-0.4,0s-0.3,0-0.4,0c-0.2,0-0.3,0.2-0.3,0.4c0,0.2,0.1,0.4,0.3,0.4c0.1,0,0.3,0,0.4,0
		C127.8,20.4,127.9,20.4,128,20.3z"/>
	<path d="M132,17.6v3.7h-1.2v-3.7h-0.5v-1h0.5v-0.4c0-0.9,0.6-1.5,1.4-1.5c0.5,0,0.8,0.1,1,0.3l-0.4,0.9c-0.1-0.1-0.3-0.1-0.5-0.1
		s-0.4,0.2-0.4,0.5v0.3h0.9v1L132,17.6L132,17.6z"/>
	<path d="M135.4,21.4c-0.8,0-1.4-0.5-1.4-1.5v-2.3h-0.5v-1h0.5v-1.3h1.2v1.3h1.1v1h-1.1v2.3c0,0.3,0.2,0.5,0.4,0.5s0.3-0.1,0.5-0.2
		l0.3,1C136.2,21.3,135.9,21.4,135.4,21.4z"/>
	<path d="M139.3,21.3v-6.2h2c1.1,0,1.9,0.7,1.9,1.8c0,0.4-0.2,0.9-0.7,1.3c0.6,0.4,0.8,0.9,0.8,1.3c0,1.1-0.7,1.8-1.8,1.8
		C141.5,21.3,139.3,21.3,139.3,21.3z M140.5,16.2v1.5h0.7c0.4,0,0.8-0.3,0.8-0.8s-0.3-0.8-0.8-0.8C141.2,16.2,140.5,16.2,140.5,16.2
		z M140.5,18.8v1.4h0.8c0.4,0,0.7-0.3,0.7-0.7c0-0.4-0.3-0.7-0.7-0.7L140.5,18.8L140.5,18.8z"/>
	<path d="M147.8,17.8c0.1,0.2,0.1,0.5,0.1,0.8c0,0.2,0,0.5,0,0.7h-2.6c0,0.1,0,0.2,0,0.3c0.1,0.4,0.3,0.7,0.8,0.7
		c0.3,0,0.7-0.1,1-0.6l0.8,0.7c-0.4,0.6-1.1,0.9-1.8,0.9c-1,0-1.6-0.6-1.9-1.4c-0.1-0.3-0.1-0.6-0.1-1.1s0-0.8,0.1-1.1
		c0.2-0.8,0.8-1.4,1.8-1.4C147,16.5,147.6,17,147.8,17.8z M145.3,18.1c0,0.1,0,0.2,0,0.3h1.4c0-0.2,0-0.3,0-0.3
		c-0.1-0.4-0.3-0.6-0.7-0.6S145.4,17.7,145.3,18.1z"/>
	<path d="M150.1,21.3h-1.2v-4.8h1L150,17c0.2-0.4,0.6-0.5,1-0.5c0.1,0,0.2,0,0.4,0v1.1c-0.3-0.1-0.5-0.1-0.6-0.1
		c-0.4,0-0.7,0.2-0.7,0.7L150.1,21.3L150.1,21.3z"/>
	<path d="M153.4,20.1c0.1,0.1,0.2,0.2,0.4,0.2c0.1,0,0.2,0,0.3,0v1.1c-0.1,0-0.4,0-0.5,0c-0.6,0-1.1-0.3-1.3-0.7
		c-0.1-0.2-0.1-0.5-0.1-0.7v-5.1h1.2V20C153.3,20,153.3,20,153.4,20.1z"/>
	<path d="M154.8,15.4c0-0.4,0.3-0.7,0.7-0.7s0.7,0.3,0.7,0.7s-0.3,0.7-0.7,0.7S154.8,15.7,154.8,15.4z M154.9,21.3v-4.8h1.2v4.8
		H154.9z"/>
	<path d="M158.5,21.3h-1.2v-4.8h1l0.1,0.4c0.2-0.4,0.6-0.5,1.1-0.5c1,0,1.6,0.7,1.6,1.6v3.2h-1.2v-3.1c0-0.5-0.2-0.7-0.7-0.7
		c-0.4,0-0.7,0.3-0.7,0.7L158.5,21.3L158.5,21.3z"/>
</g>
<g>
	<polygon class="st0" points="58.5,5.3 63.8,5.3 63.8,15.9 58.5,15.9 	"/>
	<polygon class="st0" points="69.1,15.9 69.1,21.3 63.8,21.3 63.8,15.9 	"/>
	<path class="st0" d="M21.3,0h5.3v5.3h5.3v5.3h-5.3v5.3h5.3v5.3h-5.3c-2.9,0-5.3-2.4-5.3-5.3C21.3,15.9,21.3,0,21.3,0L21.3,0z"/>
	<path class="st0" d="M37.2,5.3h5.3v10.6h5.3V5.3h5.3v10.6h5.3v5.3h-16c-2.9,0-5.3-2.4-5.3-5.3L37.2,5.3L37.2,5.3z"/>
	<polygon class="st0" points="5.3,10.6 5.3,21.3 0,21.3 0,10.6 	"/>
	<polygon class="st0" points="5.3,0 5.3,5.3 0,5.3 0,0 	"/>
	<path class="st0" d="M5.3,5.3h5.3c2.9,0,5.3,2.4,5.3,5.3v10.6h-5.3V10.6H5.3V5.3L5.3,5.3z"/>
</g>
</svg>
