<?xml version="1.0" encoding="utf-8"?>
<!-- Generator: Adobe Illustrator 26.0.3, SVG Export Plug-In . SVG Version: 6.00 Build 0)  -->
<svg version="1.1" id="Layer_1" xmlns="http://www.w3.org/2000/svg" xmlns:xlink="http://www.w3.org/1999/xlink" x="0px" y="0px"
	 viewBox="0 0 1000 308" style="enable-background:new 0 0 1000 308;" xml:space="preserve">
<style type="text/css">
	.st0{fill:#89BA17;}
	.st1{fill:#B0B2B3;}
</style>
<polygon class="st0" points="846.36,77.22 923.19,77.22 923.19,230.85 846.36,230.85 "/>
<polygon class="st1" points="1000,230.85 1000,307.67 923.19,307.67 923.19,230.85 "/>
<path class="st0" d="M308.69,0.41h76.8v76.81h76.81v76.81h-76.81v76.81h76.81v76.81h-76.81c-42.42,0-76.8-34.38-76.8-76.81
	C308.97,230.9,308.69,0.41,308.69,0.41L308.69,0.41z"/>
<path class="st0" d="M539.11,77.22h76.81v153.63h76.81V77.22h76.8v153.63h76.8v76.81h-230.4c-42.43,0-76.81-34.38-76.81-76.81V77.22
	H539.11z"/>
<polygon class="st1" points="78.23,154.04 78.23,307.67 1.43,307.67 1.43,154.04 "/>
<polygon class="st1" points="78.23,0.41 78.23,77.22 1.43,77.22 1.43,0.41 "/>
<path class="st1" d="M78.2,77.22l76.81-0.01c42.43,0,76.84,34.41,76.84,76.83v153.63h-76.8V154.04H78.23L78.2,77.22L78.2,77.22z"/>
</svg>
